<?xml version="1.0" standalone="no"?>
<!DOCTYPE svg PUBLIC "-//W3C//DTD SVG 20010904//EN"
 "http://www.w3.org/TR/2001/REC-SVG-20010904/DTD/svg10.dtd">
<svg version="1.0" xmlns="http://www.w3.org/2000/svg"
 width="512.000000pt" height="512.000000pt" viewBox="0 0 512.000000 512.000000"
 preserveAspectRatio="xMidYMid meet">
<metadata>
Created by potrace 1.11, written by Peter Selinger 2001-2013
</metadata>
<g transform="translate(0.000000,512.000000) scale(0.100000,-0.100000)"
fill="#000000" stroke="none">
<path d="M415 5110 c-183 -38 -330 -170 -391 -350 -18 -53 -19 -134 -19 -2200
0 -2066 1 -2147 19 -2200 52 -154 168 -274 322 -332 l59 -23 2155 0 2155 0 59
23 c154 58 270 178 322 332 18 53 19 134 19 2200 0 2066 -1 2147 -19 2200 -52
154 -168 274 -322 332 l-59 23 -2130 1 c-1172 1 -2148 -2 -2170 -6z m2910
-881 c580 -9 664 -13 695 -27 51 -25 59 -63 27 -138 -111 -264 -119 -276 -191
-310 l-51 -24 -571 0 -571 0 -17 -87 c-28 -143 -121 -492 -191 -714 -5 -15 32
-17 407 -24 470 -8 458 -6 458 -80 0 -53 -63 -276 -91 -321 -40 -66 -47 -66
-431 -49 -189 9 -372 15 -408 13 l-65 -3 -42 -165 c-95 -366 -168 -785 -179
-1020 -7 -177 -18 -228 -55 -273 -35 -43 -128 -89 -214 -108 -33 -7 -115 -13
-183 -13 l-124 -1 -28 32 c-43 48 -54 118 -54 353 0 139 6 245 17 330 21 152
85 466 132 650 18 74 32 136 31 138 -2 2 -64 -4 -137 -12 -74 -9 -175 -16
-225 -16 -107 0 -120 8 -109 67 10 54 36 92 110 161 77 72 182 127 356 186
l122 41 33 115 c58 197 144 448 215 625 37 93 66 171 64 173 -6 6 -174 -18
-240 -34 -103 -26 -237 -82 -315 -132 -41 -27 -128 -97 -192 -155 -65 -59
-129 -109 -143 -113 -21 -5 -33 0 -56 22 -40 38 -52 91 -47 200 4 79 10 101
42 168 85 175 302 327 621 432 188 61 374 95 650 117 90 8 322 7 950 -4z"/>
</g>
</svg>
